<?xml version="1.0" encoding="UTF-8" standalone="no"?>
<svg
   xmlns:dc="http://purl.org/dc/elements/1.1/"
   xmlns:cc="http://creativecommons.org/ns#"
   xmlns:rdf="http://www.w3.org/1999/02/22-rdf-syntax-ns#"
   xmlns:svg="http://www.w3.org/2000/svg"
   xmlns="http://www.w3.org/2000/svg"
   xmlns:sodipodi="http://sodipodi.sourceforge.net/DTD/sodipodi-0.dtd"
   xmlns:inkscape="http://www.inkscape.org/namespaces/inkscape"
   width="23px"
   height="23px"
   viewBox="0 0 23 23"
   version="1.1"
   id="svg2"
   inkscape:version="0.91 r13725"
   sodipodi:docname="search-blue.svg">
  <metadata
     id="metadata17">
    <rdf:RDF>
      <cc:Work
         rdf:about="">
        <dc:format>image/svg+xml</dc:format>
        <dc:type
           rdf:resource="http://purl.org/dc/dcmitype/StillImage" />
      </cc:Work>
    </rdf:RDF>
  </metadata>
  <sodipodi:namedview
     pagecolor="#ffffff"
     bordercolor="#666666"
     borderopacity="1"
     objecttolerance="10"
     gridtolerance="10"
     guidetolerance="10"
     inkscape:pageopacity="0"
     inkscape:pageshadow="2"
     inkscape:window-width="1364"
     inkscape:window-height="747"
     id="namedview15"
     showgrid="false"
     inkscape:zoom="10.26087"
     inkscape:cx="-3.0211864"
     inkscape:cy="11.5"
     inkscape:window-x="1"
     inkscape:window-y="20"
     inkscape:window-maximized="0"
     inkscape:current-layer="Group-8" />
  <!-- Generator: sketchtool 3.6.1 (26313) - http://www.bohemiancoding.com/sketch -->
  <title
     id="title4">CAF165F1-AB50-4578-9A04-C9189249E430</title>
  <desc
     id="desc6">Created with sketchtool.</desc>
  <defs
     id="defs8" />
  <g
     id="Page-1"
     stroke="none"
     stroke-width="1"
     fill="none"
     fill-rule="evenodd">
    <g
       id="02-Web-Collection-Homepage"
       transform="translate(-322.000000, -332.000000)"
       fill="#4990E2">
      <g
         id="Group-8"
         transform="translate(307.000000, 318.000000)">
        <g
           id="Group-6"
           style="fill:#96b9af;fill-opacity:1">
          <path
             d="M37.2907375,34.1690123 L30.220825,27.1863827 C31.176475,25.8839012 31.748025,24.2880988 31.748025,22.5594074 C31.748025,22.4708148 31.7356625,22.3859136 31.721575,22.3015802 C31.73595,22.2161111 31.7483125,22.1297901 31.7483125,22.0397778 C31.7483125,17.6782963 28.155425,14.1297654 23.739425,14.1297654 C23.6609375,14.1297654 23.585325,14.1419753 23.5097125,14.1524815 C23.433525,14.1419753 23.3584875,14.1297654 23.28,14.1297654 C18.8637125,14.1297654 15.270825,17.6782963 15.270825,22.0397778 C15.270825,22.1283704 15.2829,22.2132716 15.297275,22.2978889 C15.2826125,22.383358 15.2705375,22.4693951 15.2705375,22.5594074 C15.2705375,26.9208889 18.8631375,30.4697037 23.279425,30.4697037 C23.3579125,30.4697037 23.4332375,30.4574938 23.509425,30.4467037 C23.5850375,30.4574938 23.660075,30.4697037 23.73885,30.4697037 C25.23615,30.4697037 26.6342625,30.054 27.8342875,29.3444074 L35.004825,36.4264198 C35.3207875,36.7384815 35.7342125,36.8940864 36.147925,36.8940864 C36.5616375,36.8940864 36.9756375,36.7381975 37.291025,36.4264198 C37.9220875,35.8031481 37.9220875,34.7925679 37.2907375,34.1690123 L37.2907375,34.1690123 Z M23.509425,27.299679 C23.4332375,27.2888889 23.3582,27.276679 23.279425,27.276679 C20.645925,27.276679 18.503475,25.160679 18.503475,22.5596914 C18.503475,22.4710988 18.4914,22.3861975 18.477025,22.3018642 C18.4916875,22.2163951 18.5037625,22.1300741 18.5037625,22.0400617 C18.5037625,19.4390741 20.6465,17.3230741 23.28,17.3230741 C23.3582,17.3230741 23.433525,17.3111481 23.5097125,17.300642 C23.585325,17.3111481 23.66065,17.3230741 23.739425,17.3230741 C26.372925,17.3230741 28.515375,19.4390741 28.515375,22.0400617 C28.515375,22.1286543 28.5277375,22.2135556 28.541825,22.2981728 C28.52745,22.383642 28.5148,22.469679 28.5148,22.5596914 C28.5148,25.160679 26.37235,27.276679 23.73885,27.276679 C23.660075,27.276679 23.58475,27.2888889 23.509425,27.299679 L23.509425,27.299679 Z"
             id="Search-blue"
             style="fill:#96b9af;fill-opacity:1" />
        </g>
      </g>
    </g>
    <path
       style="fill:none;stroke:none;stroke-width:1px;stroke-linecap:butt;stroke-linejoin:miter;stroke-opacity:1;opacity:0"
       d="m 20.436864,22.673371 c -0.160805,-0.0825 -1.651906,-1.497097 -3.313559,-3.143543 -1.661652,-1.646445 -3.309192,-3.268874 -3.661199,-3.605395 l -0.640014,-0.611857 -0.578207,0.286435 c -1.255792,0.622104 -1.872125,0.744633 -3.7455799,0.744633 -1.5170624,0 -1.7858916,-0.02524 -2.433006,-0.228442 C 3.8538775,15.420791 2.1398166,13.995558 1.1829017,12.055508 0.55606231,10.784654 0.40180804,10.169352 0.33998767,8.6932203 0.23686441,6.2308689 0.91144604,4.3388556 2.4820013,2.6854693 4.123143,0.95777386 5.9306954,0.21577237 8.4983051,0.21577237 c 2.4926469,0 4.2805109,0.69872253 5.8906579,2.30215243 1.542441,1.5360055 2.295783,3.4344572 2.295783,5.785465 0,1.695984 -0.346208,3.0130802 -1.132048,4.3067112 l -0.367544,0.605044 3.663122,3.61086 c 3.941677,3.88544 3.992571,3.948653 3.838846,4.768081 -0.07562,0.403069 -0.447996,0.883079 -0.843891,1.087805 -0.358518,0.185396 -1.03641,0.181289 -1.406367,-0.0085 l 0,-2e-6 z M 10.159132,13.074652 C 13.029935,12.245988 14.411477,8.8508849 13.052447,5.9644068 12.694769,5.2047249 11.784265,4.2501663 11.074028,3.8902619 9.8376844,3.2637592 8.1269334,3.1154226 6.8269133,3.522001 4.5085188,4.2470739 3.1501146,6.5353828 3.5133487,9.1038886 3.9547783,12.22533 6.9342474,14.005523 10.159132,13.074652 Z"
       id="path3345"
       inkscape:connector-curvature="0" />
    <path
       style="opacity:0;fill:none"
       d="m 20.436864,22.673371 c -0.160805,-0.0825 -1.651906,-1.497097 -3.313559,-3.143543 -1.661652,-1.646445 -3.309192,-3.268874 -3.661199,-3.605395 l -0.640014,-0.611857 -0.578207,0.286435 c -1.255792,0.622104 -1.872125,0.744633 -3.7455799,0.744633 -1.5170624,0 -1.7858916,-0.02524 -2.433006,-0.228442 C 3.8538775,15.420791 2.1398166,13.995558 1.1829017,12.055508 0.55606231,10.784654 0.40180804,10.169352 0.33998767,8.6932203 0.23686441,6.2308689 0.91144604,4.3388556 2.4820013,2.6854693 4.123143,0.95777386 5.9306954,0.21577237 8.4983051,0.21577237 c 2.4926469,0 4.2805109,0.69872253 5.8906579,2.30215243 1.542441,1.5360055 2.295783,3.4344572 2.295783,5.785465 0,1.695984 -0.346208,3.0130802 -1.132048,4.3067112 l -0.367544,0.605044 3.663122,3.61086 c 3.941677,3.88544 3.992571,3.948653 3.838846,4.768081 -0.07562,0.403069 -0.447996,0.883079 -0.843891,1.087805 -0.358518,0.185396 -1.03641,0.181289 -1.406367,-0.0085 l 0,-2e-6 z M 10.159132,13.074652 C 13.029935,12.245988 14.411477,8.8508849 13.052447,5.9644068 12.694769,5.2047249 11.784265,4.2501663 11.074028,3.8902619 9.8376844,3.2637592 8.1269334,3.1154226 6.8269133,3.522001 4.5085188,4.2470739 3.1501146,6.5353828 3.5133487,9.1038886 3.9547783,12.22533 6.9342474,14.005523 10.159132,13.074652 Z"
       id="path3347"
       inkscape:connector-curvature="0" />
    <path
       style="opacity:0;fill:#0000ff"
       d="m 20.436864,22.673371 c -0.160805,-0.0825 -1.651906,-1.497097 -3.313559,-3.143543 -1.661652,-1.646445 -3.309192,-3.268874 -3.661199,-3.605395 l -0.640014,-0.611857 -0.578207,0.286435 c -1.255792,0.622104 -1.872125,0.744633 -3.7455799,0.744633 -1.5170624,0 -1.7858916,-0.02524 -2.433006,-0.228442 C 3.8538775,15.420791 2.1398166,13.995558 1.1829017,12.055508 0.55606231,10.784654 0.40180804,10.169352 0.33998767,8.6932203 0.23686441,6.2308689 0.91144604,4.3388556 2.4820013,2.6854693 4.123143,0.95777386 5.9306954,0.21577237 8.4983051,0.21577237 c 2.4926469,0 4.2805109,0.69872253 5.8906579,2.30215243 1.542441,1.5360055 2.295783,3.4344572 2.295783,5.785465 0,1.695984 -0.346208,3.0130802 -1.132048,4.3067112 l -0.367544,0.605044 3.663122,3.61086 c 3.941677,3.88544 3.992571,3.948653 3.838846,4.768081 -0.07562,0.403069 -0.447996,0.883079 -0.843891,1.087805 -0.358518,0.185396 -1.03641,0.181289 -1.406367,-0.0085 l 0,-2e-6 z M 10.159132,13.074652 C 13.029935,12.245988 14.411477,8.8508849 13.052447,5.9644068 12.694769,5.2047249 11.784265,4.2501663 11.074028,3.8902619 9.8376844,3.2637592 8.1269334,3.1154226 6.8269133,3.522001 4.5085188,4.2470739 3.1501146,6.5353828 3.5133487,9.1038886 3.9547783,12.22533 6.9342474,14.005523 10.159132,13.074652 Z"
       id="path3349"
       inkscape:connector-curvature="0" />
    <path
       style="opacity:0;fill:#96b9af;fill-opacity:1"
       d="m 20.436864,22.673371 c -0.160805,-0.0825 -1.651906,-1.497097 -3.313559,-3.143543 -1.661652,-1.646445 -3.309192,-3.268874 -3.661199,-3.605395 l -0.640014,-0.611857 -0.578207,0.286435 c -1.255792,0.622104 -1.872125,0.744633 -3.7455799,0.744633 -1.5170624,0 -1.7858916,-0.02524 -2.433006,-0.228442 C 3.8538775,15.420791 2.1398166,13.995558 1.1829017,12.055508 0.55606231,10.784654 0.40180804,10.169352 0.33998767,8.6932203 0.23686441,6.2308689 0.91144604,4.3388556 2.4820013,2.6854693 4.123143,0.95777386 5.9306954,0.21577237 8.4983051,0.21577237 c 2.4926469,0 4.2805109,0.69872253 5.8906579,2.30215243 1.542441,1.5360055 2.295783,3.4344572 2.295783,5.785465 0,1.695984 -0.346208,3.0130802 -1.132048,4.3067112 l -0.367544,0.605044 3.663122,3.61086 c 3.941677,3.88544 3.992571,3.948653 3.838846,4.768081 -0.07562,0.403069 -0.447996,0.883079 -0.843891,1.087805 -0.358518,0.185396 -1.03641,0.181289 -1.406367,-0.0085 l 0,-2e-6 z M 10.159132,13.074652 C 13.029935,12.245988 14.411477,8.8508849 13.052447,5.9644068 12.694769,5.2047249 11.784265,4.2501663 11.074028,3.8902619 9.8376844,3.2637592 8.1269334,3.1154226 6.8269133,3.522001 4.5085188,4.2470739 3.1501146,6.5353828 3.5133487,9.1038886 3.9547783,12.22533 6.9342474,14.005523 10.159132,13.074652 Z"
       id="path3351"
       inkscape:connector-curvature="0" />
    <path
       style="opacity:0;fill:#96b9af;fill-opacity:1"
       d="M 20.479758,22.6993 C 20.173053,22.526832 19.10327,21.501623 15.813606,18.227582 l -2.927494,-2.913594 -0.744915,0.344171 c -1.151876,0.5322 -2.1466045,0.732848 -3.6331462,0.732848 -1.5735335,0 -2.5694224,-0.217362 -3.8008474,-0.829571 C 2.6431121,14.535263 1.1460954,12.705289 0.55384409,10.484312 0.26083459,9.3855086 0.26243018,7.2193414 0.55706575,6.1105932 1.2643665,3.4489375 3.2768835,1.3656313 5.9741525,0.50296303 7.017242,0.16935144 9.4738565,0.11316054 10.611489,0.3968918 c 2.28309,0.56941413 4.223128,2.1046349 5.249834,4.1543794 0.617054,1.2319044 0.805678,2.0959199 0.808485,3.7033898 0.0033,1.903745 -0.293778,3.025804 -1.171376,4.423866 l -0.329907,0.525562 3.64811,3.586197 c 2.060323,2.025354 3.702074,3.716475 3.772097,3.885524 0.168752,0.407402 0.08069,1.179701 -0.175548,1.539554 -0.114673,0.161045 -0.358521,0.364 -0.541884,0.45101 -0.390268,0.185195 -1.091265,0.201782 -1.391542,0.03293 z M 9.5593529,13.221631 c 0.8309161,-0.08882 1.9481371,-0.680066 2.6240051,-1.388644 0.944625,-0.99034 1.35068,-2.0479884 1.353026,-3.5242217 C 13.53871,6.8457892 13.175247,5.8450269 12.29711,4.8965339 11.24441,3.7594914 10.194584,3.3146099 8.5567797,3.3115042 6.8902975,3.3083442 5.9710662,3.6673848 4.8965946,4.7411284 3.8595819,5.7774385 3.4912965,6.7109975 3.4912965,8.3033898 c 0,1.0759568 0.1430104,1.6947053 0.5821037,2.5185292 0.7433099,1.394591 2.2314224,2.320147 3.9960913,2.485432 0.3418476,0.03202 0.4427927,0.02621 1.4898614,-0.08572 z"
       id="path3353"
       inkscape:connector-curvature="0" />
    <path
       style="opacity:0;fill:#96b9af;fill-opacity:1"
       d="M 20.479758,22.6993 C 20.173053,22.526832 19.10327,21.501623 15.813606,18.227582 l -2.927494,-2.913594 -0.744915,0.344171 c -1.151876,0.5322 -2.1466045,0.732848 -3.6331462,0.732848 -1.5735335,0 -2.5694224,-0.217362 -3.8008474,-0.829571 C 2.6431121,14.535263 1.1460954,12.705289 0.55384409,10.484312 0.26083459,9.3855086 0.26243018,7.2193414 0.55706575,6.1105932 1.2643665,3.4489375 3.2768835,1.3656313 5.9741525,0.50296303 7.017242,0.16935144 9.4738565,0.11316054 10.611489,0.3968918 c 2.28309,0.56941413 4.223128,2.1046349 5.249834,4.1543794 0.617054,1.2319044 0.805678,2.0959199 0.808485,3.7033898 0.0033,1.903745 -0.293778,3.025804 -1.171376,4.423866 l -0.329907,0.525562 3.64811,3.586197 c 2.060323,2.025354 3.702074,3.716475 3.772097,3.885524 0.168752,0.407402 0.08069,1.179701 -0.175548,1.539554 -0.114673,0.161045 -0.358521,0.364 -0.541884,0.45101 -0.390268,0.185195 -1.091265,0.201782 -1.391542,0.03293 z M 9.5593529,13.221631 c 0.8309161,-0.08882 1.9481371,-0.680066 2.6240051,-1.388644 0.944625,-0.99034 1.35068,-2.0479884 1.353026,-3.5242217 C 13.53871,6.8457892 13.175247,5.8450269 12.29711,4.8965339 11.24441,3.7594914 10.194584,3.3146099 8.5567797,3.3115042 6.8902975,3.3083442 5.9710662,3.6673848 4.8965946,4.7411284 3.8595819,5.7774385 3.4912965,6.7109975 3.4912965,8.3033898 c 0,1.0759568 0.1430104,1.6947053 0.5821037,2.5185292 0.7433099,1.394591 2.2314224,2.320147 3.9960913,2.485432 0.3418476,0.03202 0.4427927,0.02621 1.4898614,-0.08572 z"
       id="path3355"
       inkscape:connector-curvature="0" />
    <path
       style="opacity:0;fill:#96b9af;fill-opacity:1"
       d="M 20.479758,22.6993 C 20.173053,22.526832 19.10327,21.501623 15.813606,18.227582 l -2.927494,-2.913594 -0.744915,0.344171 c -1.151876,0.5322 -2.1466045,0.732848 -3.6331462,0.732848 -1.5735335,0 -2.5694224,-0.217362 -3.8008474,-0.829571 C 2.6431121,14.535263 1.1460954,12.705289 0.55384409,10.484312 0.26083459,9.3855086 0.26243018,7.2193414 0.55706575,6.1105932 1.2643665,3.4489375 3.2768835,1.3656313 5.9741525,0.50296303 7.017242,0.16935144 9.4738565,0.11316054 10.611489,0.3968918 c 2.28309,0.56941413 4.223128,2.1046349 5.249834,4.1543794 0.617054,1.2319044 0.805678,2.0959199 0.808485,3.7033898 0.0033,1.903745 -0.293778,3.025804 -1.171376,4.423866 l -0.329907,0.525562 3.64811,3.586197 c 2.060323,2.025354 3.702074,3.716475 3.772097,3.885524 0.168752,0.407402 0.08069,1.179701 -0.175548,1.539554 -0.114673,0.161045 -0.358521,0.364 -0.541884,0.45101 -0.390268,0.185195 -1.091265,0.201782 -1.391542,0.03293 z M 9.5593529,13.221631 c 0.8309161,-0.08882 1.9481371,-0.680066 2.6240051,-1.388644 0.944625,-0.99034 1.35068,-2.0479884 1.353026,-3.5242217 C 13.53871,6.8457892 13.175247,5.8450269 12.29711,4.8965339 11.24441,3.7594914 10.194584,3.3146099 8.5567797,3.3115042 6.8902975,3.3083442 5.9710662,3.6673848 4.8965946,4.7411284 3.8595819,5.7774385 3.4912965,6.7109975 3.4912965,8.3033898 c 0,1.0759568 0.1430104,1.6947053 0.5821037,2.5185292 0.7433099,1.394591 2.2314224,2.320147 3.9960913,2.485432 0.3418476,0.03202 0.4427927,0.02621 1.4898614,-0.08572 z"
       id="path3357"
       inkscape:connector-curvature="0" />
    <path
       style="opacity:0;fill:#96b9af;fill-opacity:1"
       d="M 20.479758,22.6993 C 20.173053,22.526832 19.10327,21.501623 15.813606,18.227582 l -2.927494,-2.913594 -0.744915,0.344171 c -1.151876,0.5322 -2.1466045,0.732848 -3.6331462,0.732848 -1.5735335,0 -2.5694224,-0.217362 -3.8008474,-0.829571 C 2.6431121,14.535263 1.1460954,12.705289 0.55384409,10.484312 0.26083459,9.3855086 0.26243018,7.2193414 0.55706575,6.1105932 1.2643665,3.4489375 3.2768835,1.3656313 5.9741525,0.50296303 7.017242,0.16935144 9.4738565,0.11316054 10.611489,0.3968918 c 2.28309,0.56941413 4.223128,2.1046349 5.249834,4.1543794 0.617054,1.2319044 0.805678,2.0959199 0.808485,3.7033898 0.0033,1.903745 -0.293778,3.025804 -1.171376,4.423866 l -0.329907,0.525562 3.64811,3.586197 c 2.060323,2.025354 3.702074,3.716475 3.772097,3.885524 0.168752,0.407402 0.08069,1.179701 -0.175548,1.539554 -0.114673,0.161045 -0.358521,0.364 -0.541884,0.45101 -0.390268,0.185195 -1.091265,0.201782 -1.391542,0.03293 z M 9.5593529,13.221631 c 0.8309161,-0.08882 1.9481371,-0.680066 2.6240051,-1.388644 0.944625,-0.99034 1.35068,-2.0479884 1.353026,-3.5242217 C 13.53871,6.8457892 13.175247,5.8450269 12.29711,4.8965339 11.24441,3.7594914 10.194584,3.3146099 8.5567797,3.3115042 6.8902975,3.3083442 5.9710662,3.6673848 4.8965946,4.7411284 3.8595819,5.7774385 3.4912965,6.7109975 3.4912965,8.3033898 c 0,1.0759568 0.1430104,1.6947053 0.5821037,2.5185292 0.7433099,1.394591 2.2314224,2.320147 3.9960913,2.485432 0.3418476,0.03202 0.4427927,0.02621 1.4898614,-0.08572 z"
       id="path3359"
       inkscape:connector-curvature="0" />
    <path
       style="opacity:0;fill:#96b9af;fill-opacity:1"
       d="M 20.479758,22.6993 C 20.173053,22.526832 19.10327,21.501623 15.813606,18.227582 l -2.927494,-2.913594 -0.744915,0.344171 c -1.151876,0.5322 -2.1466045,0.732848 -3.6331462,0.732848 -1.5735335,0 -2.5694224,-0.217362 -3.8008474,-0.829571 C 2.6431121,14.535263 1.1460954,12.705289 0.55384409,10.484312 0.26083459,9.3855086 0.26243018,7.2193414 0.55706575,6.1105932 1.2643665,3.4489375 3.2768835,1.3656313 5.9741525,0.50296303 7.017242,0.16935144 9.4738565,0.11316054 10.611489,0.3968918 c 2.28309,0.56941413 4.223128,2.1046349 5.249834,4.1543794 0.617054,1.2319044 0.805678,2.0959199 0.808485,3.7033898 0.0033,1.903745 -0.293778,3.025804 -1.171376,4.423866 l -0.329907,0.525562 3.64811,3.586197 c 2.060323,2.025354 3.702074,3.716475 3.772097,3.885524 0.168752,0.407402 0.08069,1.179701 -0.175548,1.539554 -0.114673,0.161045 -0.358521,0.364 -0.541884,0.45101 -0.390268,0.185195 -1.091265,0.201782 -1.391542,0.03293 z M 9.5593529,13.221631 c 0.8309161,-0.08882 1.9481371,-0.680066 2.6240051,-1.388644 0.944625,-0.99034 1.35068,-2.0479884 1.353026,-3.5242217 C 13.53871,6.8457892 13.175247,5.8450269 12.29711,4.8965339 11.24441,3.7594914 10.194584,3.3146099 8.5567797,3.3115042 6.8902975,3.3083442 5.9710662,3.6673848 4.8965946,4.7411284 3.8595819,5.7774385 3.4912965,6.7109975 3.4912965,8.3033898 c 0,1.0759568 0.1430104,1.6947053 0.5821037,2.5185292 0.7433099,1.394591 2.2314224,2.320147 3.9960913,2.485432 0.3418476,0.03202 0.4427927,0.02621 1.4898614,-0.08572 z"
       id="path3361"
       inkscape:connector-curvature="0" />
    <path
       style="opacity:0;fill:#96b9af;fill-opacity:1"
       d="M 20.479758,22.6993 C 20.173053,22.526832 19.10327,21.501623 15.813606,18.227582 l -2.927494,-2.913594 -0.744915,0.344171 c -1.151876,0.5322 -2.1466045,0.732848 -3.6331462,0.732848 -1.5735335,0 -2.5694224,-0.217362 -3.8008474,-0.829571 C 2.6431121,14.535263 1.1460954,12.705289 0.55384409,10.484312 0.26083459,9.3855086 0.26243018,7.2193414 0.55706575,6.1105932 1.2643665,3.4489375 3.2768835,1.3656313 5.9741525,0.50296303 7.017242,0.16935144 9.4738565,0.11316054 10.611489,0.3968918 c 2.28309,0.56941413 4.223128,2.1046349 5.249834,4.1543794 0.617054,1.2319044 0.805678,2.0959199 0.808485,3.7033898 0.0033,1.903745 -0.293778,3.025804 -1.171376,4.423866 l -0.329907,0.525562 3.64811,3.586197 c 2.060323,2.025354 3.702074,3.716475 3.772097,3.885524 0.168752,0.407402 0.08069,1.179701 -0.175548,1.539554 -0.114673,0.161045 -0.358521,0.364 -0.541884,0.45101 -0.390268,0.185195 -1.091265,0.201782 -1.391542,0.03293 z M 9.5593529,13.221631 c 0.8309161,-0.08882 1.9481371,-0.680066 2.6240051,-1.388644 0.944625,-0.99034 1.35068,-2.0479884 1.353026,-3.5242217 C 13.53871,6.8457892 13.175247,5.8450269 12.29711,4.8965339 11.24441,3.7594914 10.194584,3.3146099 8.5567797,3.3115042 6.8902975,3.3083442 5.9710662,3.6673848 4.8965946,4.7411284 3.8595819,5.7774385 3.4912965,6.7109975 3.4912965,8.3033898 c 0,1.0759568 0.1430104,1.6947053 0.5821037,2.5185292 0.7433099,1.394591 2.2314224,2.320147 3.9960913,2.485432 0.3418476,0.03202 0.4427927,0.02621 1.4898614,-0.08572 z"
       id="path3363"
       inkscape:connector-curvature="0" />
    <path
       style="opacity:0;fill:#96b9af;fill-opacity:1"
       d="M 20.479758,22.6993 C 20.173053,22.526832 19.10327,21.501623 15.813606,18.227582 l -2.927494,-2.913594 -0.744915,0.344171 c -1.151876,0.5322 -2.1466045,0.732848 -3.6331462,0.732848 -1.5735335,0 -2.5694224,-0.217362 -3.8008474,-0.829571 C 2.6431121,14.535263 1.1460954,12.705289 0.55384409,10.484312 0.26083459,9.3855086 0.26243018,7.2193414 0.55706575,6.1105932 1.2643665,3.4489375 3.2768835,1.3656313 5.9741525,0.50296303 7.017242,0.16935144 9.4738565,0.11316054 10.611489,0.3968918 c 2.28309,0.56941413 4.223128,2.1046349 5.249834,4.1543794 0.617054,1.2319044 0.805678,2.0959199 0.808485,3.7033898 0.0033,1.903745 -0.293778,3.025804 -1.171376,4.423866 l -0.329907,0.525562 3.64811,3.586197 c 2.060323,2.025354 3.702074,3.716475 3.772097,3.885524 0.168752,0.407402 0.08069,1.179701 -0.175548,1.539554 -0.114673,0.161045 -0.358521,0.364 -0.541884,0.45101 -0.390268,0.185195 -1.091265,0.201782 -1.391542,0.03293 z M 9.5593529,13.221631 c 0.8309161,-0.08882 1.9481371,-0.680066 2.6240051,-1.388644 0.944625,-0.99034 1.35068,-2.0479884 1.353026,-3.5242217 C 13.53871,6.8457892 13.175247,5.8450269 12.29711,4.8965339 11.24441,3.7594914 10.194584,3.3146099 8.5567797,3.3115042 6.8902975,3.3083442 5.9710662,3.6673848 4.8965946,4.7411284 3.8595819,5.7774385 3.4912965,6.7109975 3.4912965,8.3033898 c 0,1.0759568 0.1430104,1.6947053 0.5821037,2.5185292 0.7433099,1.394591 2.2314224,2.320147 3.9960913,2.485432 0.3418476,0.03202 0.4427927,0.02621 1.4898614,-0.08572 z"
       id="path3365"
       inkscape:connector-curvature="0" />
    <path
       style="opacity:0;fill:#96b9af;fill-opacity:1"
       d="M 20.479758,22.6993 C 20.173053,22.526832 19.10327,21.501623 15.813606,18.227582 l -2.927494,-2.913594 -0.744915,0.344171 c -1.151876,0.5322 -2.1466045,0.732848 -3.6331462,0.732848 -1.5735335,0 -2.5694224,-0.217362 -3.8008474,-0.829571 C 2.6431121,14.535263 1.1460954,12.705289 0.55384409,10.484312 0.26083459,9.3855086 0.26243018,7.2193414 0.55706575,6.1105932 1.2643665,3.4489375 3.2768835,1.3656313 5.9741525,0.50296303 7.017242,0.16935144 9.4738565,0.11316054 10.611489,0.3968918 c 2.28309,0.56941413 4.223128,2.1046349 5.249834,4.1543794 0.617054,1.2319044 0.805678,2.0959199 0.808485,3.7033898 0.0033,1.903745 -0.293778,3.025804 -1.171376,4.423866 l -0.329907,0.525562 3.64811,3.586197 c 2.060323,2.025354 3.702074,3.716475 3.772097,3.885524 0.168752,0.407402 0.08069,1.179701 -0.175548,1.539554 -0.114673,0.161045 -0.358521,0.364 -0.541884,0.45101 -0.390268,0.185195 -1.091265,0.201782 -1.391542,0.03293 z M 9.5593529,13.221631 c 0.8309161,-0.08882 1.9481371,-0.680066 2.6240051,-1.388644 0.944625,-0.99034 1.35068,-2.0479884 1.353026,-3.5242217 C 13.53871,6.8457892 13.175247,5.8450269 12.29711,4.8965339 11.24441,3.7594914 10.194584,3.3146099 8.5567797,3.3115042 6.8902975,3.3083442 5.9710662,3.6673848 4.8965946,4.7411284 3.8595819,5.7774385 3.4912965,6.7109975 3.4912965,8.3033898 c 0,1.0759568 0.1430104,1.6947053 0.5821037,2.5185292 0.7433099,1.394591 2.2314224,2.320147 3.9960913,2.485432 0.3418476,0.03202 0.4427927,0.02621 1.4898614,-0.08572 z"
       id="path3367"
       inkscape:connector-curvature="0" />
    <path
       style="opacity:0;fill:#96b9af;fill-opacity:1"
       d="M 20.479758,22.6993 C 20.173053,22.526832 19.10327,21.501623 15.813606,18.227582 l -2.927494,-2.913594 -0.744915,0.344171 c -1.151876,0.5322 -2.1466045,0.732848 -3.6331462,0.732848 -1.5735335,0 -2.5694224,-0.217362 -3.8008474,-0.829571 C 2.6431121,14.535263 1.1460954,12.705289 0.55384409,10.484312 0.26083459,9.3855086 0.26243018,7.2193414 0.55706575,6.1105932 1.2643665,3.4489375 3.2768835,1.3656313 5.9741525,0.50296303 7.017242,0.16935144 9.4738565,0.11316054 10.611489,0.3968918 c 2.28309,0.56941413 4.223128,2.1046349 5.249834,4.1543794 0.617054,1.2319044 0.805678,2.0959199 0.808485,3.7033898 0.0033,1.903745 -0.293778,3.025804 -1.171376,4.423866 l -0.329907,0.525562 3.64811,3.586197 c 2.060323,2.025354 3.702074,3.716475 3.772097,3.885524 0.168752,0.407402 0.08069,1.179701 -0.175548,1.539554 -0.114673,0.161045 -0.358521,0.364 -0.541884,0.45101 -0.390268,0.185195 -1.091265,0.201782 -1.391542,0.03293 z M 9.5593529,13.221631 c 0.8309161,-0.08882 1.9481371,-0.680066 2.6240051,-1.388644 0.944625,-0.99034 1.35068,-2.0479884 1.353026,-3.5242217 C 13.53871,6.8457892 13.175247,5.8450269 12.29711,4.8965339 11.24441,3.7594914 10.194584,3.3146099 8.5567797,3.3115042 6.8902975,3.3083442 5.9710662,3.6673848 4.8965946,4.7411284 3.8595819,5.7774385 3.4912965,6.7109975 3.4912965,8.3033898 c 0,1.0759568 0.1430104,1.6947053 0.5821037,2.5185292 0.7433099,1.394591 2.2314224,2.320147 3.9960913,2.485432 0.3418476,0.03202 0.4427927,0.02621 1.4898614,-0.08572 z"
       id="path3369"
       inkscape:connector-curvature="0" />
    <path
       style="opacity:0;fill:#96b9af;fill-opacity:1"
       d="m 20.436864,22.673371 c -0.160805,-0.0825 -1.651906,-1.497097 -3.313559,-3.143543 -1.661652,-1.646445 -3.309192,-3.268874 -3.661199,-3.605395 l -0.640014,-0.611857 -0.578207,0.286435 c -1.255792,0.622104 -1.872125,0.744633 -3.7455799,0.744633 -1.5170624,0 -1.7858916,-0.02524 -2.433006,-0.228442 C 3.8538775,15.420791 2.1398166,13.995558 1.1829017,12.055508 0.55606231,10.784654 0.40180804,10.169352 0.33998767,8.6932203 0.23686441,6.2308689 0.91144604,4.3388556 2.4820013,2.6854693 4.123143,0.95777386 5.9306954,0.21577237 8.4983051,0.21577237 c 2.4926469,0 4.2805109,0.69872253 5.8906579,2.30215243 1.542441,1.5360055 2.295783,3.4344572 2.295783,5.785465 0,1.695984 -0.346208,3.0130802 -1.132048,4.3067112 l -0.367544,0.605044 3.663122,3.61086 c 3.941677,3.88544 3.992571,3.948653 3.838846,4.768081 -0.07562,0.403069 -0.447996,0.883079 -0.843891,1.087805 -0.358518,0.185396 -1.03641,0.181289 -1.406367,-0.0085 l 0,-2e-6 z M 10.159132,13.074652 C 13.029935,12.245988 14.411477,8.8508849 13.052447,5.9644068 12.694769,5.2047249 11.784265,4.2501663 11.074028,3.8902619 9.8376844,3.2637592 8.1269334,3.1154226 6.8269133,3.522001 4.5085188,4.2470739 3.1501146,6.5353828 3.5133487,9.1038886 3.9547783,12.22533 6.9342474,14.005523 10.159132,13.074652 Z"
       id="path4171"
       inkscape:connector-curvature="0" />
    <path
       style="opacity:0;fill:#96b9af;fill-opacity:1"
       d="m 20.436864,22.673371 c -0.160805,-0.0825 -1.651906,-1.497097 -3.313559,-3.143543 -1.661652,-1.646445 -3.309192,-3.268874 -3.661199,-3.605395 l -0.640014,-0.611857 -0.578207,0.286435 c -1.255792,0.622104 -1.872125,0.744633 -3.7455799,0.744633 -1.5170624,0 -1.7858916,-0.02524 -2.433006,-0.228442 C 3.8538775,15.420791 2.1398166,13.995558 1.1829017,12.055508 0.55606231,10.784654 0.40180804,10.169352 0.33998767,8.6932203 0.23686441,6.2308689 0.91144604,4.3388556 2.4820013,2.6854693 4.123143,0.95777386 5.9306954,0.21577237 8.4983051,0.21577237 c 2.4926469,0 4.2805109,0.69872253 5.8906579,2.30215243 1.542441,1.5360055 2.295783,3.4344572 2.295783,5.785465 0,1.695984 -0.346208,3.0130802 -1.132048,4.3067112 l -0.367544,0.605044 3.663122,3.61086 c 3.941677,3.88544 3.992571,3.948653 3.838846,4.768081 -0.07562,0.403069 -0.447996,0.883079 -0.843891,1.087805 -0.358518,0.185396 -1.03641,0.181289 -1.406367,-0.0085 l 0,-2e-6 z M 10.159132,13.074652 C 13.029935,12.245988 14.411477,8.8508849 13.052447,5.9644068 12.694769,5.2047249 11.784265,4.2501663 11.074028,3.8902619 9.8376844,3.2637592 8.1269334,3.1154226 6.8269133,3.522001 4.5085188,4.2470739 3.1501146,6.5353828 3.5133487,9.1038886 3.9547783,12.22533 6.9342474,14.005523 10.159132,13.074652 Z"
       id="path4173"
       inkscape:connector-curvature="0" />
    <path
       style="opacity:0;fill:#96b9af;fill-opacity:1"
       d="m 20.436864,22.673371 c -0.160805,-0.0825 -1.651906,-1.497097 -3.313559,-3.143543 -1.661652,-1.646445 -3.309192,-3.268874 -3.661199,-3.605395 l -0.640014,-0.611857 -0.578207,0.286435 c -1.255792,0.622104 -1.872125,0.744633 -3.7455799,0.744633 -1.5170624,0 -1.7858916,-0.02524 -2.433006,-0.228442 C 3.8538775,15.420791 2.1398166,13.995558 1.1829017,12.055508 0.55606231,10.784654 0.40180804,10.169352 0.33998767,8.6932203 0.23686441,6.2308689 0.91144604,4.3388556 2.4820013,2.6854693 4.123143,0.95777386 5.9306954,0.21577237 8.4983051,0.21577237 c 2.4926469,0 4.2805109,0.69872253 5.8906579,2.30215243 1.542441,1.5360055 2.295783,3.4344572 2.295783,5.785465 0,1.695984 -0.346208,3.0130802 -1.132048,4.3067112 l -0.367544,0.605044 3.663122,3.61086 c 3.941677,3.88544 3.992571,3.948653 3.838846,4.768081 -0.07562,0.403069 -0.447996,0.883079 -0.843891,1.087805 -0.358518,0.185396 -1.03641,0.181289 -1.406367,-0.0085 l 0,-2e-6 z M 10.159132,13.074652 C 13.029935,12.245988 14.411477,8.8508849 13.052447,5.9644068 12.694769,5.2047249 11.784265,4.2501663 11.074028,3.8902619 9.8376844,3.2637592 8.1269334,3.1154226 6.8269133,3.522001 4.5085188,4.2470739 3.1501146,6.5353828 3.5133487,9.1038886 3.9547783,12.22533 6.9342474,14.005523 10.159132,13.074652 Z"
       id="path4175"
       inkscape:connector-curvature="0" />
    <path
       style="opacity:0;fill:#96b9af;fill-opacity:1"
       d="m 20.436864,22.673371 c -0.160805,-0.0825 -1.651906,-1.497097 -3.313559,-3.143543 -1.661652,-1.646445 -3.309192,-3.268874 -3.661199,-3.605395 l -0.640014,-0.611857 -0.578207,0.286435 c -1.255792,0.622104 -1.872125,0.744633 -3.7455799,0.744633 -1.5170624,0 -1.7858916,-0.02524 -2.433006,-0.228442 C 3.8538775,15.420791 2.1398166,13.995558 1.1829017,12.055508 0.55606231,10.784654 0.40180804,10.169352 0.33998767,8.6932203 0.23686441,6.2308689 0.91144604,4.3388556 2.4820013,2.6854693 4.123143,0.95777386 5.9306954,0.21577237 8.4983051,0.21577237 c 2.4926469,0 4.2805109,0.69872253 5.8906579,2.30215243 1.542441,1.5360055 2.295783,3.4344572 2.295783,5.785465 0,1.695984 -0.346208,3.0130802 -1.132048,4.3067112 l -0.367544,0.605044 3.663122,3.61086 c 3.941677,3.88544 3.992571,3.948653 3.838846,4.768081 -0.07562,0.403069 -0.447996,0.883079 -0.843891,1.087805 -0.358518,0.185396 -1.03641,0.181289 -1.406367,-0.0085 l 0,-2e-6 z M 10.159132,13.074652 C 13.029935,12.245988 14.411477,8.8508849 13.052447,5.9644068 12.694769,5.2047249 11.784265,4.2501663 11.074028,3.8902619 9.8376844,3.2637592 8.1269334,3.1154226 6.8269133,3.522001 4.5085188,4.2470739 3.1501146,6.5353828 3.5133487,9.1038886 3.9547783,12.22533 6.9342474,14.005523 10.159132,13.074652 Z"
       id="path4177"
       inkscape:connector-curvature="0" />
    <path
       style="opacity:0;fill:#96b9af;fill-opacity:1"
       d="m 20.436864,22.673371 c -0.160805,-0.0825 -1.651906,-1.497097 -3.313559,-3.143543 -1.661652,-1.646445 -3.309192,-3.268874 -3.661199,-3.605395 l -0.640014,-0.611857 -0.578207,0.286435 c -1.255792,0.622104 -1.872125,0.744633 -3.7455799,0.744633 -1.5170624,0 -1.7858916,-0.02524 -2.433006,-0.228442 C 3.8538775,15.420791 2.1398166,13.995558 1.1829017,12.055508 0.55606231,10.784654 0.40180804,10.169352 0.33998767,8.6932203 0.23686441,6.2308689 0.91144604,4.3388556 2.4820013,2.6854693 4.123143,0.95777386 5.9306954,0.21577237 8.4983051,0.21577237 c 2.4926469,0 4.2805109,0.69872253 5.8906579,2.30215243 1.542441,1.5360055 2.295783,3.4344572 2.295783,5.785465 0,1.695984 -0.346208,3.0130802 -1.132048,4.3067112 l -0.367544,0.605044 3.663122,3.61086 c 3.941677,3.88544 3.992571,3.948653 3.838846,4.768081 -0.07562,0.403069 -0.447996,0.883079 -0.843891,1.087805 -0.358518,0.185396 -1.03641,0.181289 -1.406367,-0.0085 l 0,-2e-6 z M 10.159132,13.074652 C 13.029935,12.245988 14.411477,8.8508849 13.052447,5.9644068 12.694769,5.2047249 11.784265,4.2501663 11.074028,3.8902619 9.8376844,3.2637592 8.1269334,3.1154226 6.8269133,3.522001 4.5085188,4.2470739 3.1501146,6.5353828 3.5133487,9.1038886 3.9547783,12.22533 6.9342474,14.005523 10.159132,13.074652 Z"
       id="path4179"
       inkscape:connector-curvature="0" />
    <path
       style="opacity:0;fill:#96b9af;fill-opacity:1"
       d="m 20.436864,22.673371 c -0.160805,-0.0825 -1.651906,-1.497097 -3.313559,-3.143543 -1.661652,-1.646445 -3.309192,-3.268874 -3.661199,-3.605395 l -0.640014,-0.611857 -0.578207,0.286435 c -1.255792,0.622104 -1.872125,0.744633 -3.7455799,0.744633 -1.5170624,0 -1.7858916,-0.02524 -2.433006,-0.228442 C 3.8538775,15.420791 2.1398166,13.995558 1.1829017,12.055508 0.55606231,10.784654 0.40180804,10.169352 0.33998767,8.6932203 0.23686441,6.2308689 0.91144604,4.3388556 2.4820013,2.6854693 4.123143,0.95777386 5.9306954,0.21577237 8.4983051,0.21577237 c 2.4926469,0 4.2805109,0.69872253 5.8906579,2.30215243 1.542441,1.5360055 2.295783,3.4344572 2.295783,5.785465 0,1.695984 -0.346208,3.0130802 -1.132048,4.3067112 l -0.367544,0.605044 3.663122,3.61086 c 3.941677,3.88544 3.992571,3.948653 3.838846,4.768081 -0.07562,0.403069 -0.447996,0.883079 -0.843891,1.087805 -0.358518,0.185396 -1.03641,0.181289 -1.406367,-0.0085 l 0,-2e-6 z M 10.159132,13.074652 C 13.029935,12.245988 14.411477,8.8508849 13.052447,5.9644068 12.694769,5.2047249 11.784265,4.2501663 11.074028,3.8902619 9.8376844,3.2637592 8.1269334,3.1154226 6.8269133,3.522001 4.5085188,4.2470739 3.1501146,6.5353828 3.5133487,9.1038886 3.9547783,12.22533 6.9342474,14.005523 10.159132,13.074652 Z"
       id="path4181"
       inkscape:connector-curvature="0" />
    <path
       style="opacity:0;fill:#96b9af;fill-opacity:1"
       d="m 20.436864,22.673371 c -0.160805,-0.0825 -1.651906,-1.497097 -3.313559,-3.143543 -1.661652,-1.646445 -3.309192,-3.268874 -3.661199,-3.605395 l -0.640014,-0.611857 -0.578207,0.286435 c -1.255792,0.622104 -1.872125,0.744633 -3.7455799,0.744633 -1.5170624,0 -1.7858916,-0.02524 -2.433006,-0.228442 C 3.8538775,15.420791 2.1398166,13.995558 1.1829017,12.055508 0.55606231,10.784654 0.40180804,10.169352 0.33998767,8.6932203 0.23686441,6.2308689 0.91144604,4.3388556 2.4820013,2.6854693 4.123143,0.95777386 5.9306954,0.21577237 8.4983051,0.21577237 c 2.4926469,0 4.2805109,0.69872253 5.8906579,2.30215243 1.542441,1.5360055 2.295783,3.4344572 2.295783,5.785465 0,1.695984 -0.346208,3.0130802 -1.132048,4.3067112 l -0.367544,0.605044 3.663122,3.61086 c 3.941677,3.88544 3.992571,3.948653 3.838846,4.768081 -0.07562,0.403069 -0.447996,0.883079 -0.843891,1.087805 -0.358518,0.185396 -1.03641,0.181289 -1.406367,-0.0085 l 0,-2e-6 z M 10.159132,13.074652 C 13.029935,12.245988 14.411477,8.8508849 13.052447,5.9644068 12.694769,5.2047249 11.784265,4.2501663 11.074028,3.8902619 9.8376844,3.2637592 8.1269334,3.1154226 6.8269133,3.522001 4.5085188,4.2470739 3.1501146,6.5353828 3.5133487,9.1038886 3.9547783,12.22533 6.9342474,14.005523 10.159132,13.074652 Z"
       id="path4183"
       inkscape:connector-curvature="0" />
    <path
       style="opacity:0;fill:#96b9af;fill-opacity:1"
       d="m 20.436864,22.673371 c -0.160805,-0.0825 -1.651906,-1.497097 -3.313559,-3.143543 -1.661652,-1.646445 -3.309192,-3.268874 -3.661199,-3.605395 l -0.640014,-0.611857 -0.578207,0.286435 c -1.255792,0.622104 -1.872125,0.744633 -3.7455799,0.744633 -1.5170624,0 -1.7858916,-0.02524 -2.433006,-0.228442 C 3.8538775,15.420791 2.1398166,13.995558 1.1829017,12.055508 0.55606231,10.784654 0.40180804,10.169352 0.33998767,8.6932203 0.23686441,6.2308689 0.91144604,4.3388556 2.4820013,2.6854693 4.123143,0.95777386 5.9306954,0.21577237 8.4983051,0.21577237 c 2.4926469,0 4.2805109,0.69872253 5.8906579,2.30215243 1.542441,1.5360055 2.295783,3.4344572 2.295783,5.785465 0,1.695984 -0.346208,3.0130802 -1.132048,4.3067112 l -0.367544,0.605044 3.663122,3.61086 c 3.941677,3.88544 3.992571,3.948653 3.838846,4.768081 -0.07562,0.403069 -0.447996,0.883079 -0.843891,1.087805 -0.358518,0.185396 -1.03641,0.181289 -1.406367,-0.0085 l 0,-2e-6 z M 10.159132,13.074652 C 13.029935,12.245988 14.411477,8.8508849 13.052447,5.9644068 12.694769,5.2047249 11.784265,4.2501663 11.074028,3.8902619 9.8376844,3.2637592 8.1269334,3.1154226 6.8269133,3.522001 4.5085188,4.2470739 3.1501146,6.5353828 3.5133487,9.1038886 3.9547783,12.22533 6.9342474,14.005523 10.159132,13.074652 Z"
       id="path4185"
       inkscape:connector-curvature="0" />
    <path
       style="opacity:0;fill:#96b9af;fill-opacity:1"
       d="m 20.436864,22.673371 c -0.160805,-0.0825 -1.651906,-1.497097 -3.313559,-3.143543 -1.661652,-1.646445 -3.309192,-3.268874 -3.661199,-3.605395 l -0.640014,-0.611857 -0.578207,0.286435 c -1.255792,0.622104 -1.872125,0.744633 -3.7455799,0.744633 -1.5170624,0 -1.7858916,-0.02524 -2.433006,-0.228442 C 3.8538775,15.420791 2.1398166,13.995558 1.1829017,12.055508 0.55606231,10.784654 0.40180804,10.169352 0.33998767,8.6932203 0.23686441,6.2308689 0.91144604,4.3388556 2.4820013,2.6854693 4.123143,0.95777386 5.9306954,0.21577237 8.4983051,0.21577237 c 2.4926469,0 4.2805109,0.69872253 5.8906579,2.30215243 1.542441,1.5360055 2.295783,3.4344572 2.295783,5.785465 0,1.695984 -0.346208,3.0130802 -1.132048,4.3067112 l -0.367544,0.605044 3.663122,3.61086 c 3.941677,3.88544 3.992571,3.948653 3.838846,4.768081 -0.07562,0.403069 -0.447996,0.883079 -0.843891,1.087805 -0.358518,0.185396 -1.03641,0.181289 -1.406367,-0.0085 l 0,-2e-6 z M 10.159132,13.074652 C 13.029935,12.245988 14.411477,8.8508849 13.052447,5.9644068 12.694769,5.2047249 11.784265,4.2501663 11.074028,3.8902619 9.8376844,3.2637592 8.1269334,3.1154226 6.8269133,3.522001 4.5085188,4.2470739 3.1501146,6.5353828 3.5133487,9.1038886 3.9547783,12.22533 6.9342474,14.005523 10.159132,13.074652 Z"
       id="path4187"
       inkscape:connector-curvature="0" />
    <path
       style="opacity:0;fill:#96b9af;fill-opacity:1"
       d="m 20.436864,22.673371 c -0.160805,-0.0825 -1.651906,-1.497097 -3.313559,-3.143543 -1.661652,-1.646445 -3.309192,-3.268874 -3.661199,-3.605395 l -0.640014,-0.611857 -0.578207,0.286435 c -1.255792,0.622104 -1.872125,0.744633 -3.7455799,0.744633 -1.5170624,0 -1.7858916,-0.02524 -2.433006,-0.228442 C 3.8538775,15.420791 2.1398166,13.995558 1.1829017,12.055508 0.55606231,10.784654 0.40180804,10.169352 0.33998767,8.6932203 0.23686441,6.2308689 0.91144604,4.3388556 2.4820013,2.6854693 4.123143,0.95777386 5.9306954,0.21577237 8.4983051,0.21577237 c 2.4926469,0 4.2805109,0.69872253 5.8906579,2.30215243 1.542441,1.5360055 2.295783,3.4344572 2.295783,5.785465 0,1.695984 -0.346208,3.0130802 -1.132048,4.3067112 l -0.367544,0.605044 3.663122,3.61086 c 3.941677,3.88544 3.992571,3.948653 3.838846,4.768081 -0.07562,0.403069 -0.447996,0.883079 -0.843891,1.087805 -0.358518,0.185396 -1.03641,0.181289 -1.406367,-0.0085 l 0,-2e-6 z M 10.159132,13.074652 C 13.029935,12.245988 14.411477,8.8508849 13.052447,5.9644068 12.694769,5.2047249 11.784265,4.2501663 11.074028,3.8902619 9.8376844,3.2637592 8.1269334,3.1154226 6.8269133,3.522001 4.5085188,4.2470739 3.1501146,6.5353828 3.5133487,9.1038886 3.9547783,12.22533 6.9342474,14.005523 10.159132,13.074652 Z"
       id="path4189"
       inkscape:connector-curvature="0" />
  </g>
</svg>
